<svg xmlns="http://www.w3.org/2000/svg"  viewBox="0 0 100 100" width="50px" height="50px"><circle cx="50" cy="50" r="38" fill="#f9dbd2"/><circle cx="11" cy="30" r="2" fill="#668dc4"/><circle cx="75" cy="14" r="1" fill="#e9ac00"/><circle cx="81" cy="16" r="4" fill="#e9ac00"/><circle cx="85" cy="25" r="2" fill="#668dc4"/><circle cx="79" cy="77" r="2" fill="#f6c041"/><circle cx="13" cy="64" r="4" fill="#f6c041"/><circle cx="23" cy="88" r="2" fill="#668dc4"/><circle cx="16.5" cy="54.5" r="2.5" fill="#fff"/><circle cx="19" cy="68" r="1" fill="#e9ac00"/><circle cx="78" cy="35" r="1" fill="#fff"/><g><path fill="#e1e0d8" d="M66.719,73H35.281C31.26,73,28,69.74,28,65.719V34.281C28,30.26,31.26,27,35.281,27h31.438 C70.74,27,74,30.26,74,34.281v31.438C74,69.74,70.74,73,66.719,73z"/><path fill="#3678ba" d="M65.719,73H34.281C30.26,73,27,69.74,27,65.719V34.281C27,30.26,30.26,27,34.281,27h31.438 C69.74,27,73,30.26,73,34.281v31.438C73,69.74,69.74,73,65.719,73z"/><path fill="#472b29" d="M65.719,73.7H34.281c-4.401,0-7.981-3.58-7.981-7.981V34.281c0-4.401,3.58-7.981,7.981-7.981h31.438 c4.401,0,7.981,3.58,7.981,7.981v31.438C73.7,70.12,70.12,73.7,65.719,73.7z M34.281,27.7c-3.629,0-6.581,2.952-6.581,6.581v31.438 c0,3.629,2.952,6.581,6.581,6.581h31.438c3.629,0,6.581-2.952,6.581-6.581V34.281c0-3.629-2.952-6.581-6.581-6.581 C65.719,27.7,34.281,27.7,34.281,27.7z"/><path fill="#472b29" d="M30.5,40.167c-0.276,0-0.5-0.224-0.5-0.5v-4.333C30,32.393,32.393,30,35.333,30h14 c0.276,0,0.5,0.224,0.5,0.5s-0.224,0.5-0.5,0.5h-14C32.943,31,31,32.944,31,35.333v4.333C31,39.943,30.776,40.167,30.5,40.167z"/><path fill="#472b29" d="M41.583,70h-6.25C32.393,70,30,67.607,30,64.667V44.333c0-0.276,0.224-0.5,0.5-0.5 s0.5,0.224,0.5,0.5v20.333C31,67.056,32.943,69,35.333,69h6.25c0.276,0,0.5,0.224,0.5,0.5S41.859,70,41.583,70z"/><path fill="#472b29" d="M64.667,70h-19.75c-0.276,0-0.5-0.224-0.5-0.5s0.224-0.5,0.5-0.5h19.75 C67.057,69,69,67.056,69,64.667v-5.083c0-0.276,0.224-0.5,0.5-0.5s0.5,0.224,0.5,0.5v5.083C70,67.607,67.607,70,64.667,70z"/><path fill="#472b29" d="M69.5,56.167c-0.276,0-0.5-0.224-0.5-0.5V35.333C69,32.944,67.057,31,64.667,31h-2.75 c-0.276,0-0.5-0.224-0.5-0.5s0.224-0.5,0.5-0.5h2.75C67.607,30,70,32.393,70,35.333v20.333C70,55.943,69.776,56.167,69.5,56.167z"/><path fill="#472b29" d="M58.5,31h-6.25c-0.276,0-0.5-0.224-0.5-0.5s0.224-0.5,0.5-0.5h6.25c0.276,0,0.5,0.224,0.5,0.5 S58.776,31,58.5,31z"/><path fill="#fdfcef" d="M37.445,58.189c-0.453-0.289-0.608,0.165-0.347,0.403c0,0,5.126,5.055,11.747,5.055 c6.23,0,9.567-1.809,11.553-3.311c0.203-0.154,0.231-0.462,0.062-0.657c-0.002-0.002-0.004-0.005-0.006-0.008 c-0.121-0.141-0.311-0.177-0.471-0.092c-1.04,0.548-5.197,2.495-11.02,2.088C41.444,61.139,37.445,58.189,37.445,58.189z"/><path fill="#fdfcef" d="M58.398,58.903c0,0,3.095-0.53,3.424,0.062c0.331,0.593-0.241,2.276-0.752,3.367 c-0.18,0.374,0.1,0.478,0.301,0.311c0,0,1.807-1.413,1.81-4.436c0-0.218-0.157-0.402-0.364-0.44 c-1.233-0.224-3.106-0.263-4.552,0.614C57.866,58.634,57.998,58.965,58.398,58.903z"/><path fill="#fdfcef" d="M44.218,49.767h-0.926c-0.128,0-0.231,0.103-0.231,0.231v5.088c0,0.128,0.103,0.231,0.231,0.231 h0.926c0.128,0,0.231-0.103,0.231-0.231v-5.088C44.449,49.871,44.346,49.767,44.218,49.767z"/><path fill="#fdfcef" d="M50.694,46.992h-0.926c-0.128,0-0.231,0.103-0.231,0.231v2.932 c-0.093-0.091-0.193-0.179-0.306-0.256c-0.303-0.209-0.685-0.35-1.081-0.364c-0.396-0.015-0.797,0.098-1.127,0.291 c-0.333,0.193-0.606,0.455-0.813,0.748c-0.417,0.589-0.595,1.285-0.603,1.966c0.009,0.681,0.187,1.377,0.603,1.966 c0.207,0.293,0.481,0.555,0.813,0.748c0.331,0.193,0.731,0.306,1.127,0.291c0.396-0.014,0.778-0.155,1.081-0.364 c0.113-0.076,0.213-0.164,0.306-0.256v0.158c0,0.128,0.103,0.231,0.231,0.231h0.926c0.128,0,0.231-0.103,0.231-0.231v-7.863 C50.925,47.095,50.822,46.992,50.694,46.992z M49.129,53.867c-0.266,0.364-0.65,0.557-0.979,0.526 c-0.332-0.029-0.634-0.266-0.841-0.62c-0.208-0.35-0.317-0.79-0.316-1.231c-0.001-0.441,0.107-0.88,0.316-1.231 c0.207-0.353,0.508-0.591,0.841-0.62c0.33-0.031,0.712,0.163,0.979,0.526c0.267,0.361,0.402,0.843,0.409,1.324 C49.53,53.024,49.396,53.506,49.129,53.867z"/><path fill="#fdfcef" d="M37.742,46.53c0.128,0,0.231-0.103,0.231-0.231v-2.102c0.076,0.07,0.157,0.137,0.246,0.198 c0.288,0.198,0.651,0.329,1.025,0.344c0.77,0.031,1.464-0.427,1.848-0.974c0.399-0.556,0.571-1.214,0.58-1.86 c-0.009-0.644-0.18-1.304-0.58-1.86c-0.385-0.547-1.078-1.005-1.848-0.974c-0.376,0.014-0.738,0.146-1.025,0.344 c-0.089,0.06-0.17,0.128-0.246,0.198V39.36c0-0.128-0.103-0.231-0.231-0.231h-0.926c-0.128,0-0.231,0.103-0.231,0.231v6.938 c0,0.128,0.103,0.231,0.231,0.231h0.926V46.53z M38.354,40.694c0.248-0.33,0.597-0.497,0.891-0.466 c0.602,0.048,1.056,0.884,1.04,1.677c0.014,0.792-0.438,1.628-1.04,1.677c-0.295,0.031-0.643-0.137-0.891-0.466 c-0.248-0.326-0.375-0.769-0.381-1.21C37.98,41.462,38.106,41.021,38.354,40.694z"/><circle cx="43.756" cy="47.917" r=".926" fill="#fdfcef"/><path fill="#fdfcef" d="M47.919,39.129h-0.926c-0.128,0-0.231,0.103-0.231,0.231v5.088c0,0.128,0.103,0.231,0.231,0.231 h0.926c0.128,0,0.231-0.103,0.231-0.231V39.36C48.149,39.232,48.046,39.129,47.919,39.129z"/><path fill="#fdfcef" d="M43.756,44.679c0.128,0,0.231-0.103,0.231-0.231v-3.469c0,0,0.557-0.405,1.624-0.457 c0.125-0.006,0.227-0.105,0.227-0.23v-0.93c0-0.142-0.123-0.252-0.264-0.231c-0.293,0.045-0.826,0.235-1.586,0.922V39.36 c0-0.128-0.103-0.231-0.231-0.231H42.83c-0.128,0-0.231,0.103-0.231,0.231v5.088c0,0.128,0.103,0.231,0.231,0.231h0.926V44.679z"/><circle cx="47.456" cy="37.279" r=".926" fill="#fdfcef"/><path fill="#fdfcef" d="M41.789,49.767H40.9c-0.092,0-0.175,0.055-0.212,0.139l-1.558,3.562l-1.106-3.538 c-0.03-0.097-0.119-0.162-0.221-0.162h-0.897c-0.158,0-0.27,0.155-0.219,0.304l1.695,5.088c0.031,0.094,0.12,0.158,0.219,0.158 h0.064h0.926h0.077c0.093,0,0.177-0.056,0.214-0.143l2.12-5.088C42.066,49.936,41.955,49.767,41.789,49.767z"/><path fill="#fdfcef" d="M60.638,49.536c-0.776-0.001-1.518,0.389-2.005,0.956c-0.496,0.566-0.772,1.309-0.77,2.051 c-0.002,0.742,0.275,1.485,0.77,2.051c0.486,0.567,1.228,0.957,2.005,0.956c0.776,0.001,1.518-0.389,2.005-0.956 c0.496-0.566,0.772-1.309,0.77-2.051c0.002-0.742-0.275-1.485-0.77-2.051C62.157,49.925,61.415,49.535,60.638,49.536z M61.715,53.904c-0.222,0.409-0.623,0.725-1.077,0.719c-0.453,0.005-0.855-0.311-1.077-0.719 c-0.229-0.412-0.304-0.892-0.311-1.362c0.008-0.469,0.083-0.949,0.311-1.362c0.222-0.409,0.623-0.725,1.077-0.719 c0.453-0.005,0.855,0.311,1.077,0.719c0.229,0.412,0.304,0.892,0.311,1.362C62.018,53.012,61.944,53.492,61.715,53.904z"/><path fill="#fdfcef" d="M56.938,51.386c0-1.619-1.387-2.081-2.313-2.081s-2.776,0.694-2.776,3.237 c0,2.544,2.313,3.007,3.007,3.007c0.44,0,1.299,0.053,1.979-0.391c0.064-0.042,0.102-0.118,0.102-0.195v-0.816 c0-0.159-0.155-0.27-0.305-0.219c-0.361,0.12-1.003,0.292-1.719,0.292c-1.098,0-1.445-0.752-1.445-1.214 C53.932,53.005,56.938,53.236,56.938,51.386z M54.625,50.693c0.463,0,0.752,0.405,0.752,0.694c0,0.405-0.058,0.521-1.908,0.521 C53.469,51.907,53.411,50.693,54.625,50.693z"/><path fill="#fdfcef" d="M63.109,43.289c-0.361,0.12-1.003,0.292-1.719,0.292c-1.098,0-1.445-0.752-1.445-1.214 c0.463,0,3.469,0.231,3.469-1.619c0-1.619-1.387-2.081-2.313-2.081s-2.776,0.694-2.776,3.237c0,2.544,2.313,3.007,3.007,3.007 c0.44,0,1.299,0.053,1.979-0.391c0.064-0.042,0.102-0.118,0.102-0.195v-0.816C63.414,43.35,63.259,43.24,63.109,43.289z M61.101,40.054c0.463,0,0.752,0.405,0.752,0.694c0,0.405-0.058,0.521-1.908,0.521C59.945,41.268,59.887,40.054,61.101,40.054z"/><path fill="#fdfcef" d="M56.046,39.129c-1.072-0.009-1.877,0.395-2.165,0.562c-0.248-0.336-0.636-0.559-1.08-0.562 c-1.348-0.005-1.875,0.463-1.875,0.463v-0.231c0-0.128-0.103-0.231-0.231-0.231H49.77c-0.128,0-0.231,0.103-0.231,0.231v5.088 c0,0.128,0.103,0.231,0.231,0.231h0.926c0.128,0,0.231-0.103,0.231-0.231v-3.932c1.156-0.521,1.85,0,1.85,0v3.932 c0,0.128,0.103,0.231,0.231,0.231h0.926c0.128,0,0.231-0.103,0.231-0.231v-3.915c0-0.005-0.001-0.011-0.001-0.015 c0.001,0,0.001,0,0.001-0.001c1.156-0.521,1.85,0,1.85,0v3.932c0,0.128,0.103,0.231,0.231,0.231h0.926 c0.128,0,0.231-0.103,0.231-0.231v-3.933C57.401,39.764,56.799,39.135,56.046,39.129z"/></g></svg>