<svg xmlns="http://www.w3.org/2000/svg"  viewBox="0 0 48 48" width="48px" height="48px"><path fill="#664896" d="M29.375,44.386c2.617-0.138,5.231,0.348,7.839,0.134c1.674-0.166,3.354-0.696,4.637-1.784	c1.629-1.382,2.452-3.529,2.663-5.655c0.133-1.343,0.049-2.69-0.115-4.032c-0.311-2.34-0.305-4.809-0.212-7.17	c0.219-5.05,0.437-10.126-0.153-15.146c-0.202-1.717-0.54-3.517-1.662-4.832c-0.92-1.077-2.278-1.705-3.664-1.997	s-2.816-0.276-4.233-0.259l-19.57,0.074c-1.771-0.143-3.578-0.072-5.281,0.434s-3.301,1.47-4.376,2.885	c-1.069,1.407-1.569,3.179-1.723,4.94s0.015,3.531,0.159,5.292c0.46,5.632,0.668,11.284,0.622,16.935	c-0.013,1.632-0.034,3.333,0.67,4.806c0.695,1.454,2.02,2.51,3.416,3.315c2.898,1.67,6.294,2.462,9.632,2.246L29.375,44.386z"/><path fill="#d9e4e4" d="M33.507,13.422c-2.241-2.466-6.887-3.258-10.169-3.258c-7.659,0.457-14.004,7.255-13.124,14.114	C9.497,31.24,16.663,38.482,23.65,38.191C31.515,38.53,37.438,33.27,37.809,25.1C38.357,20.86,36.306,16.653,33.507,13.422z"/><path fill="#664896" d="M20.253,28.568c3.711,0.067,5.635-0.096,9.344,0.051c-0.495,1.348-1.248,2.736-2.515,3.421	c-0.716,0.382-1.539,0.502-2.347,0.581c-0.983,0.095-1.984,0.136-2.948-0.08c-0.963-0.216-1.894-0.715-2.462-1.522	c-0.499-0.709-0.682-1.59-0.8-2.45L20.253,28.568L20.253,28.568z"/><path fill="#060606" d="M44.898,33.05c-0.211-1.749-0.285-3.501-0.263-5.263c0.046-3.655,0.321-7.3,0.271-10.959	c-0.026-1.873-0.118-3.746-0.318-5.608c-0.155-1.441-0.347-2.903-0.953-4.235c-1.339-2.945-4.529-3.773-7.506-3.84	c-2.415-0.054-4.839,0.013-7.254,0.022c-3.534,0.013-7.068,0.026-10.602,0.039c-1.025,0.004-2.05,0.008-3.075,0.011	c-0.485,0.002-0.966-0.049-1.451-0.06c-1.656-0.036-3.353,0.15-4.912,0.733C5.982,4.959,3.99,7.187,3.304,10.163	c-0.789,3.423-0.09,7.083,0.129,10.537c0.233,3.678,0.359,7.362,0.377,11.048c0.015,3.09-0.464,6.559,1.781,9.039	c2.022,2.233,5.271,3.504,8.172,4.028c1.751,0.316,3.49,0.27,5.255,0.241c3.191-0.052,6.381-0.104,9.572-0.157	c0.261-0.004,0.523-0.009,0.784-0.013c3.425-0.156,7.02,0.774,10.342-0.395c2.833-0.997,4.587-3.411,5.14-6.311	C45.18,36.485,45.104,34.754,44.898,33.05z M42.735,40.958c-1.792,2.823-5.15,3.217-8.213,3.089	c-1.717-0.072-3.427-0.239-5.147-0.16c-2.582,0.042-5.164,0.085-7.745,0.127c-1.155,0.019-2.311,0.025-3.466,0.057	c-2.589,0.07-5.06-0.209-7.482-1.18c-1.364-0.547-2.739-1.277-3.835-2.266c-1.143-1.031-1.789-2.32-1.963-3.85	c-0.184-1.618-0.066-3.278-0.073-4.903c-0.008-1.762-0.04-3.522-0.097-5.282c-0.112-3.474-0.346-6.937-0.619-10.402	c-0.246-3.122-0.364-6.76,1.883-9.252c2.19-2.429,5.59-2.933,8.695-2.736c0.602,0.038,1.208,0.014,1.81,0.012	c3.088-0.011,6.177-0.023,9.265-0.034c2.726-0.01,5.451-0.02,8.177-0.03c1.679-0.006,3.384-0.092,5.025,0.327	c1.38,0.353,2.687,1.082,3.453,2.319c0.814,1.315,1.022,2.918,1.184,4.426c0.365,3.405,0.371,6.837,0.269,10.257	c-0.103,3.461-0.398,6.934-0.089,10.393C44.045,34.972,44.502,38.174,42.735,40.958z"/><path fill="#060606" d="M37.844,20.035c-0.514-1.729-1.342-3.364-2.354-4.853c-0.501-0.736-1.05-1.439-1.63-2.114	c-2.021-2.165-5.199-2.942-8.038-3.263c-3.076-0.348-6.048,0.192-8.774,1.688c-2.59,1.421-4.816,3.619-6.135,6.274	c-0.631,1.27-1.049,2.626-1.211,4.035c-0.082,0.711-0.092,1.431-0.024,2.144c0.069,0.728-0.039,1.465,0.028,2.201	c0.536,5.937,5.768,11.356,11.6,12.376c1.418,0.248,2.931,0.25,4.364,0.131c1.361-0.113,2.711-0.392,3.99-0.877	c2.433-0.924,4.536-2.525,6.045-4.648c1.641-2.308,2.401-5.051,2.596-7.849C38.426,23.476,38.364,21.782,37.844,20.035z M37.043,27.378c-0.248,1.275-0.654,2.521-1.249,3.678c-1.093,2.123-2.775,3.886-4.868,5.042c-2.333,1.289-4.826,1.594-7.447,1.599	c-5.593,0.012-10.887-4.351-12.412-9.668c-0.176-0.615-0.305-1.245-0.363-1.882c-0.067-0.736,0.041-1.473-0.028-2.201	c-0.121-1.274,0.01-2.555,0.364-3.784c0.767-2.661,2.529-5,4.729-6.656c2.536-1.909,5.673-2.992,8.855-2.803	c2.934,0.174,6.432,0.828,8.528,3.073c2.216,2.581,4.016,5.787,4.224,9.247C37.464,24.454,37.317,25.97,37.043,27.378z"/><path fill="#060606" d="M29.597,28.119c-3.115-0.119-6.229,0.002-9.344-0.051c-0.576,0-1.151,0-1.727,0	c-0.357,0-0.527,0.318-0.482,0.633c0.2,1.399,0.639,2.704,1.838,3.552c1.189,0.841,2.698,1.003,4.114,0.925	c1.398-0.077,2.864-0.238,3.989-1.148c1.032-0.835,1.638-2.059,2.094-3.278C30.199,28.433,29.896,28.13,29.597,28.119z M27.466,31.163c-0.942,0.837-2.265,0.948-3.469,1.014c-1.19,0.066-2.453-0.018-3.474-0.696c-0.864-0.573-1.212-1.461-1.404-2.414	c0.378,0,0.757,0,1.135,0c2.87,0.049,5.739-0.043,8.609,0.035C28.526,29.87,28.094,30.605,27.466,31.163z"/></svg>