<svg xmlns="http://www.w3.org/2000/svg"  viewBox="0 0 40 40" width="48px" height="48px"><path fill="#98ccfd" d="M10,37.5c-4.136,0-7.5-3.364-7.5-7.5V10c0-4.136,3.364-7.5,7.5-7.5h20c4.136,0,7.5,3.364,7.5,7.5v20 c0,4.136-3.364,7.5-7.5,7.5H10z"/><path fill="#4788c7" d="M30,38H10c-4.411,0-8-3.589-8-8V10c0-4.411,3.589-8,8-8h20c4.411,0,8,3.589,8,8v20 C38,34.411,34.411,38,30,38z M10,3c-3.859,0-7,3.141-7,7v20c0,3.859,3.141,7,7,7h20c3.859,0,7-3.141,7-7V10c0-3.859-3.141-7-7-7H10 z"/><path fill="#fff" d="M30.493,16c0,2.222-1.778,4-4,4s-4-1.778-4-4s1.778-4,4-4S30.493,13.778,30.493,16z"/><path fill="#98ccfd" d="M28.493,16c0-1.12-0.88-2-2-2s-2,0.88-2,2s0.88,2,2,2S28.493,17.12,28.493,16z"/><rect width="2" height="8" x="11" y="12" fill="#fff"/><rect width="3.221" height="2" x="11.92" y="15" fill="#fff"/><path fill="#fff" d="M22.8,18c0,1.111-0.967,2-2.417,2h-1.45H18.45H17v-8h3.383c1.45,0,2.417,0.889,2.417,2	s-0.58,2-1.45,2C22.172,16,22.8,16.889,22.8,18z"/><path fill="#98ccfd" d="M19,14v1.25h1.094c0.35,0,0.656-0.292,0.656-0.625S20.444,14,20.094,14H19z"/><rect width="2" height="8" x="14.5" y="12" fill="#fff"/><path fill="#98ccfd" d="M19,16.75V18h1.094c0.35,0,0.656-0.292,0.656-0.625s-0.306-0.625-0.656-0.625H19z"/><path fill="#fff" d="M28.024,16c0-0.858-0.674-1.531-1.531-1.531S24.961,15.142,24.961,16s0.674,1.531,1.531,1.531	S28.024,16.858,28.024,16z"/><path fill="#fff" d="M14.267,20.854c-0.624,0.121-1.15,0.465-1.54,0.929c-0.627-0.726-1.61-1.137-2.679-0.929 C8.715,21.114,7.8,22.363,7.8,23.722v3.828c0,0.387,0.313,0.7,0.7,0.7h0.7v-4.641c0-0.777,0.632-1.409,1.409-1.409 s1.409,0.632,1.409,1.409v3.941c0,0.387,0.313,0.7,0.7,0.7h0.7v-4.641c0-0.777,0.632-1.409,1.409-1.409s1.409,0.632,1.409,1.409 v3.941c0,0.387,0.313,0.7,0.7,0.7h0.7v-4.641C17.638,21.877,16.061,20.505,14.267,20.854z"/><path fill="#fff" d="M25.2,28.25h-0.7c-0.387,0-0.7-0.313-0.7-0.7v-6.1c0-0.387,0.313-0.7,0.7-0.7h0.7V28.25z"/><path fill="#fff" d="M21.5,28.388c-1.885,0-3.419-1.744-3.419-3.888s1.534-3.888,3.419-3.888s3.419,1.744,3.419,3.888 S23.385,28.388,21.5,28.388z M21.5,22.013c-1.113,0-2.019,1.115-2.019,2.487s0.905,2.487,2.019,2.487s2.019-1.115,2.019-2.487 S22.613,22.013,21.5,22.013z"/><path fill="#fff" d="M25.443,28.2h1.234c0.318,0,0.616-0.151,0.805-0.406l1.283-1.739c0.12-0.163,0.363-0.163,0.483,0	l1.283,1.739c0.189,0.256,0.487,0.406,0.805,0.406h1.234l-2.256-3.058c-0.26-0.353-0.26-0.834,0-1.187l2.364-3.205h-1.234	c-0.318,0-0.616,0.151-0.805,0.406l-1.391,1.885c-0.12,0.163-0.363,0.163-0.483,0l-1.391-1.885	c-0.189-0.256-0.487-0.406-0.805-0.406h-1.234l2.364,3.205c0.26,0.353,0.26,0.834,0,1.187L25.443,28.2z"/><rect width=".75" height=".4" x="32.75" y="20.75" fill="#fff"/></svg>